<?xml version="1.0" encoding="us-ascii" ?>
<!-- Generator: Adobe Illustrator 9.0, SVG Export Plug-In  -->
<!DOCTYPE svg PUBLIC "-//W3C//DTD SVG 20000303 Stylable//EN"   "http://www.w3.org/TR/2000/03/WD-SVG-20000303/DTD/svg-20000303-stylable.dtd" [
	<!ENTITY st0 "fill-rule:nonzero;clip-rule:nonzero;stroke:#000000;stroke-miterlimit:4;">
	<!ENTITY st1 "stroke:none;">
]>
<svg  width="95.991pt" height="150.915pt" viewBox="0 0 95.991 150.915" xml:space="preserve">
	<g id="Layer_x0020_1" style="&st0;">
		<g style="&st1;">
			<g>
				<g>
					<path d="M86.068,0C61.466,0,56.851,35.041,70.691,35.041C84.529,35.041,110.671,0,86.068,0z"/>
					<path d="M45.217,30.699c7.369,0.45,15.454-28.122,1.604-26.325c-13.845,1.797-8.976,25.875-1.604,26.325z"/>
					<path d="M11.445,48.453c5.241-2.307,0.675-24.872-8.237-18.718c-8.908,6.155,2.996,21.024,8.237,18.718z"/>
					<path d="M26.212,36.642c6.239-1.272,6.581-26.864-4.545-22.273c-11.128,4.592-1.689,23.547,4.545,22.273z"/>
					<path id="newshape" d="M58.791,93.913c1.107,8.454-6.202,12.629-13.36,7.179C22.644,83.743,83.16,75.088,79.171,51.386c-3.311-19.674-63.676-13.617-70.55,17.167C3.968,89.374,27.774,118.26,52.614,118.26c12.22,0,26.315-11.034,28.952-25.012
						c2.014-10.659-23.699-6.388-22.775,0.665z"/>
				</g>
			</g>
			<g>
				<path d="M17.718,132.165l-1.49,2.857c-0.418-0.374-1.064-0.746-1.937-1.115c-0.873-0.369-1.623-0.555-2.25-0.555c-1.964,0-3.514,0.668-4.65,2.004c-1.137,1.337-1.705,3.127-1.705,5.37c0,2.135,0.557,3.841,1.671,5.117c1.114,1.276,2.63,1.915,4.549,1.915
					c1.264,0,2.305-0.346,3.124-1.037v-3.932h-2.781v-3.031h6.344v8.958c-0.847,0.692-1.938,1.231-3.271,1.618s-2.661,0.58-3.981,0.58c-2.868,0-5.142-0.941-6.822-2.824s-2.52-4.369-2.52-7.459c0-3.092,0.914-5.604,2.743-7.536c1.828-1.933,4.289-2.899,7.382-2.899
					c2.192,0,4.057,0.656,5.594,1.969z"/>
				<path d="M34.892,150.853l-9.719-12.688v12.406h-3.406V130.54h1.719l9.438,12.094V130.54h3.406v20.313h-1.438z"/>
				<path d="M39.487,140.392c0-2.852,0.781-5.264,2.345-7.236c1.563-1.973,3.652-2.959,6.268-2.959c2.881,0,5.082,0.893,6.604,2.679c1.522,1.786,2.283,4.292,2.283,7.517c0,3.227-0.795,5.786-2.385,7.682c-1.592,1.895-3.85,2.842-6.775,2.842
					c-2.688,0-4.75-0.938-6.186-2.814s-2.153-4.447-2.153-7.709z M43.175,140.392c0,2.342,0.396,4.155,1.19,5.439c0.793,1.285,1.947,1.928,3.461,1.928c1.779,0,3.136-0.629,4.07-1.887c0.936-1.257,1.402-3.084,1.402-5.48c0-4.692-1.732-7.039-5.199-7.039
					c-1.587,0-2.805,0.636-3.653,1.906c-0.849,1.271-1.272,2.982-1.272,5.133z"/>
				<path d="M78.831,150.571h-3.438l-2.094-10.781l-4.031,11.063h-1.281L63.94,139.79l-2.141,10.781h-3.438l4.031-20.031h1.875l4.359,13.5l4.234-13.5h1.875l4.094,20.031z"/>
				<path d="M84.569,133.696v4.688h6.438v3.031h-6.438v6h9.063v3.156H81.006V130.54h12.625v3.156h-9.063z"/>
			</g>
		</g>
	</g>
</svg>
